<?xml version="1.0" encoding="utf-8"?>
<svg width="38px" height="46px" viewBox="0 0 38 46" version="1.1" xmlns:xlink="http://www.w3.org/1999/xlink" xmlns="http://www.w3.org/2000/svg">
  <desc>Created with Lunacy</desc>
  <g id="book-bookmark" transform="translate(1 1)">
    <path d="M12 0L12 16L6 12L0 16L0 0" transform="translate(8 0)" id="Path" fill="none" stroke="#DC3C3B" stroke-width="2" />
    <path d="M0 8C0 10.2091 1.79086 12 4 12L32 12C34.2091 12 36 10.2091 36 8L36 0" transform="translate(0 32)" id="Path" fill="none" stroke="#000000" stroke-width="2" />
    <path d="M4 0C1.79086 -2.22045e-16 0 1.79086 0 4L0 40C0 37.7909 1.79086 36 4 36L32 36C34.2091 36 36 34.2091 36 32L36 4C36 1.79086 34.2091 0 32 0L4 0Z" id="Path" fill="none" stroke="#000000" stroke-width="2" />
  </g>
</svg>