<?xml version="1.0" encoding="utf-8"?>
<svg width="32px" height="24px" viewBox="0 0 32 24" version="1.1" xmlns:xlink="http://www.w3.org/1999/xlink" xmlns="http://www.w3.org/2000/svg">
  <desc>Created with Lunacy</desc>
  <g id="film" transform="translate(1 1)">
    <path d="M1.5 3C2.32843 3 3 2.32843 3 1.5C3 0.671573 2.32843 0 1.5 0C0.671573 0 0 0.671573 0 1.5C0 2.32843 0.671573 3 1.5 3Z" transform="translate(4 4)" id="Oval" fill="#EF3E2F" stroke="none" />
    <path d="M1.5 3C2.32843 3 3 2.32843 3 1.5C3 0.671573 2.32843 0 1.5 0C0.671573 0 0 0.671573 0 1.5C0 2.32843 0.671573 3 1.5 3Z" transform="translate(10 4)" id="Oval-Copy" fill="#EF3E2F" stroke="none" />
    <path d="M21 7L21 3C21 1.34315 19.6569 0 18 0L3 0C1.34315 0 2.22045e-16 1.34315 0 3L0 19C2.22045e-16 20.6569 1.34315 22 3 22L18 22C19.6569 22 21 20.6569 21 19L21 15L30 19L30 3L21 7Z" id="Path" fill="none" stroke="#FFFFFF" stroke-width="2" stroke-linecap="square" />
  </g>
</svg>