<?xml version="1.0" encoding="utf-8"?>
<svg width="32px" height="26px" viewBox="0 0 32 26" version="1.1" xmlns:xlink="http://www.w3.org/1999/xlink" xmlns="http://www.w3.org/2000/svg">
  <desc>Created with Lunacy</desc>
  <g id="email" transform="translate(1 1)">
    <path d="M0 0L11 10L22 0" transform="translate(4 5)" id="Path" fill="none" stroke="#EF3E2F" stroke-width="2" stroke-linecap="square" />
    <path d="M2.999 0L27.001 0Q27.1483 0 27.295 0.014441Q27.4416 0.028882 27.5861 0.0576249Q27.7306 0.0863679 27.8716 0.129136Q28.0125 0.171904 28.1487 0.228285Q28.2848 0.284667 28.4147 0.354118Q28.5447 0.42357 28.6672 0.505423Q28.7897 0.587276 28.9035 0.680742Q29.0174 0.774208 29.1216 0.878387Q29.2258 0.982566 29.3193 1.09645Q29.4127 1.21034 29.4946 1.33284Q29.5764 1.45535 29.6459 1.58528Q29.7153 1.71522 29.7717 1.85133Q29.8281 1.98745 29.8709 2.12844Q29.9136 2.26942 29.9424 2.41392Q29.9711 2.55842 29.9856 2.70505Q30 2.85167 30 2.999L30 21.001Q30 21.1483 29.9856 21.295Q29.9711 21.4416 29.9424 21.5861Q29.9136 21.7306 29.8709 21.8716Q29.8281 22.0126 29.7717 22.1487Q29.7153 22.2848 29.6459 22.4147Q29.5764 22.5447 29.4946 22.6672Q29.4127 22.7897 29.3193 22.9035Q29.2258 23.0174 29.1216 23.1216Q29.0174 23.2258 28.9035 23.3193Q28.7897 23.4127 28.6672 23.4946Q28.5447 23.5764 28.4147 23.6459Q28.2848 23.7153 28.1487 23.7717Q28.0125 23.8281 27.8716 23.8709Q27.7306 23.9136 27.5861 23.9424Q27.4416 23.9711 27.295 23.9856Q27.1483 24 27.001 24L2.999 24Q2.85167 24 2.70505 23.9856Q2.55842 23.9711 2.41392 23.9424Q2.26942 23.9136 2.12844 23.8709Q1.98745 23.8281 1.85133 23.7717Q1.71522 23.7153 1.58528 23.6459Q1.45535 23.5764 1.33284 23.4946Q1.21034 23.4127 1.09645 23.3193Q0.982566 23.2258 0.878387 23.1216Q0.774208 23.0174 0.680742 22.9035Q0.587276 22.7897 0.505423 22.6672Q0.42357 22.5447 0.354118 22.4147Q0.284667 22.2848 0.228285 22.1487Q0.171904 22.0126 0.129136 21.8716Q0.0863679 21.7306 0.0576249 21.5861Q0.028882 21.4416 0.014441 21.295Q0 21.1483 0 21.001L0 2.999Q0 2.85167 0.014441 2.70505Q0.028882 2.55842 0.0576249 2.41392Q0.0863679 2.26942 0.129136 2.12844Q0.171904 1.98745 0.228285 1.85133Q0.284667 1.71522 0.354118 1.58528Q0.42357 1.45535 0.505423 1.33284Q0.587276 1.21034 0.680742 1.09645Q0.774208 0.982566 0.878387 0.878387Q0.982566 0.774208 1.09645 0.680742Q1.21034 0.587276 1.33284 0.505423Q1.45535 0.42357 1.58528 0.354118Q1.71522 0.284667 1.85133 0.228285Q1.98745 0.171904 2.12844 0.129136Q2.26942 0.0863679 2.41392 0.0576249Q2.55843 0.028882 2.70505 0.014441Q2.85167 0 2.999 0L2.999 0Z" id="Rectangle" fill="none" stroke="#FFFFFF" stroke-width="2" stroke-linecap="square" />
    <path d="M0 5L4 0" transform="translate(4 14)" id="Path" fill="none" stroke="#D6392F" stroke-width="2" stroke-linecap="square" />
    <path d="M4 5L0 0" transform="translate(22 14)" id="Path" fill="none" stroke="#D6392F" stroke-width="2" stroke-linecap="square" />
  </g>
</svg>