<?xml version="1.0" encoding="utf-8"?>
<svg width="44px" height="46px" viewBox="0 0 44 46" version="1.1" xmlns:xlink="http://www.w3.org/1999/xlink" xmlns="http://www.w3.org/2000/svg">
  <desc>Created with Lunacy</desc>
  <g id="paper-diploma" transform="translate(1 1)">
    <path d="M5 0L5 2C5 6.5 0 7 0 7C0 7 29.657 7 30 7C32.761 7 35 4.761 35 2L35 0L5 0Z" transform="translate(5 37)" id="Path" fill="none" stroke="#000000" stroke-width="2" stroke-linecap="square" />
    <path d="M34 0L0 0L0 39C0 41.761 2.239 44 5 44" id="Path" fill="none" stroke="#000000" stroke-width="2" stroke-linecap="square" />
    <path d="M0 0.5L12 0.5" transform="translate(8 9.5)" id="Path" fill="none" stroke="#000000" stroke-width="2" stroke-linecap="square" />
    <path d="M0 0.5L12 0.5" transform="translate(8 17.5)" id="Path" fill="none" stroke="#000000" stroke-width="2" stroke-linecap="square" />
    <path d="M0 0.5L9 0.5" transform="translate(8 25.5)" id="Path" fill="none" stroke="#000000" stroke-width="2" stroke-linecap="square" />
    <path d="M12 0L12 12.709L6 10.709L0 12.709L0 0" transform="translate(28 18.29102)" id="Path" fill="none" stroke="#DC3C3B" stroke-width="2" />
    <path d="M8 16C12.4183 16 16 12.4183 16 8C16 3.58172 12.4183 0 8 0C3.58172 0 0 3.58172 0 8C0 12.4183 3.58172 16 8 16Z" transform="translate(26 5)" id="Oval" fill="none" stroke="#DC3C3B" stroke-width="2" stroke-linecap="square" />
  </g>
</svg>