<?xml version="1.0" encoding="utf-8"?>
<svg width="32px" height="32px" viewBox="0 0 32 32" version="1.1" xmlns:xlink="http://www.w3.org/1999/xlink" xmlns="http://www.w3.org/2000/svg">
  <desc>Created with Lunacy</desc>
  <g id="Group-19" transform="translate(1 1)">
    <g id="network">
      <path d="M3 6C4.65685 6 6 4.65685 6 3C6 1.34315 4.65685 0 3 0C1.34315 0 0 1.34315 0 3C0 4.65685 1.34315 6 3 6Z" transform="translate(12 0)" id="Oval" fill="none" stroke="#EF3E2F" stroke-width="2" stroke-linecap="square" />
      <path d="M3 6C4.65685 6 6 4.65685 6 3C6 1.34315 4.65685 0 3 0C1.34315 0 0 1.34315 0 3C0 4.65685 1.34315 6 3 6Z" transform="translate(0 5)" id="Oval" fill="none" stroke="#EF3E2F" stroke-width="2" stroke-linecap="square" />
      <path d="M3 6C4.65685 6 6 4.65685 6 3C6 1.34315 4.65685 0 3 0C1.34315 0 0 1.34315 0 3C0 4.65685 1.34315 6 3 6Z" transform="translate(24 5)" id="Oval" fill="none" stroke="#EF3E2F" stroke-width="2" stroke-linecap="square" />
      <path d="M5 10C7.76142 10 10 7.76142 10 5C10 2.23858 7.76142 0 5 0C2.23858 0 0 2.23858 0 5C0 7.76142 2.23858 10 5 10Z" transform="translate(10 11)" id="Oval" fill="none" stroke="#FFFFFF" stroke-width="2" stroke-linecap="square" />
      <path d="M0 4.356C0 2.331 1.507 0.634 3.517 0.384C5.17 0.178 7.362 0 10 0C12.638 0 14.83 0.178 16.483 0.384C18.493 0.634 20 2.331 20 4.356L20 6L0 6L0 4.356Z" transform="translate(5 24)" id="Path" fill="none" stroke="#FFFFFF" stroke-width="2" stroke-linecap="square" />
    </g>
  </g>
</svg>