<?xml version="1.0" encoding="UTF-8"?>
<svg width="52px" height="55px" viewBox="0 0 52 55" version="1.1" xmlns="http://www.w3.org/2000/svg" xmlns:xlink="http://www.w3.org/1999/xlink">
    <!-- Generator: sketchtool 49.3 (51167) - http://www.bohemiancoding.com/sketch -->
    <title>02B0334E-2417-40AC-8DBE-154BA17008DB</title>
    <desc>Created with sketchtool.</desc>
    <defs></defs>
    <g id="Page-1" stroke="none" stroke-width="1" fill="none" fill-rule="evenodd">
        <g id="Homepage" transform="translate(-1027.000000, -911.000000)" fill="#FFFFFF">
            <g id="tb_logo_black_eps" transform="translate(1027.000000, 911.000000)">
                <path d="M50.9454669,51.6555096 L50.645634,51.6555096 L50.3617922,53.9906042 L50.6616251,53.9906042 L50.9454669,51.6555096 Z M49.3900673,52.9102237 C49.5958192,52.9102237 49.7405386,53.0707513 49.7405386,53.3022034 C49.7405386,53.5547704 49.555042,53.7664611 49.3340985,53.7664611 C49.135276,53.7664611 48.9932218,53.6067456 48.9932218,53.3750228 C48.9932218,53.112169 49.1667251,52.9102237 49.3900673,52.9102237 Z M50.1064679,52.6868927 L49.806635,52.6868927 L49.7847806,52.8560828 C49.6520546,52.7090904 49.5355861,52.6552203 49.3524882,52.6552203 C48.9647044,52.6552203 48.6901907,52.9592211 48.6901907,53.3915358 C48.6901907,53.5902327 48.7474921,53.7407442 48.8671588,53.8593127 C48.9705678,53.9613682 49.1163532,54.0217352 49.2669359,54.0217352 C49.4188512,54.0217352 49.5227933,53.9776104 49.6653805,53.8492966 L49.6488563,53.9906042 L49.9484227,53.9906042 L50.1064679,52.6868927 Z M47.6249179,52.6868927 L47.3253516,52.6868927 L47.1673064,53.9906042 L47.4663397,53.9906042 L47.5428304,53.3628411 C47.5678831,53.1611665 47.5995987,53.0804966 47.6782215,53.0006389 C47.7352564,52.9427082 47.8104145,52.9102237 47.8959668,52.9102237 C48.0188317,52.9102237 48.0849282,52.9714028 48.0849282,53.0867228 C48.0849282,53.112169 48.0790648,53.1703704 48.0729348,53.2250527 L47.9817857,53.9906042 L48.280819,53.9906042 L48.3653052,53.2921873 C48.3783646,53.1833642 48.384761,53.112169 48.384761,53.0512606 C48.384761,52.9267366 48.3623735,52.8563535 48.2992087,52.7859704 C48.2235176,52.7025935 48.1009192,52.6552203 47.971658,52.6552203 C47.8397315,52.6552203 47.7413863,52.6960966 47.611592,52.8078975 L47.6249179,52.6868927 Z M46.2248984,52.9010197 C46.4586347,52.9010197 46.6124157,53.0645251 46.6124157,53.3108659 C46.6124157,53.5804873 46.4421106,53.7756651 46.205176,53.7756651 C45.9687745,53.7756651 45.8048659,53.5991659 45.8048659,53.3433504 C45.8048659,53.0867228 45.9813008,52.9010197 46.2248984,52.9010197 Z M46.2248984,52.6446628 C45.8107293,52.6446628 45.5023678,52.9456859 45.5023678,53.350118 C45.5023678,53.7472411 45.7982029,54.032022 46.2115725,54.032022 C46.6097505,54.032022 46.9157133,53.7250434 46.9157133,53.3273789 C46.9157133,52.9234882 46.6308054,52.6446628 46.2248984,52.6446628 Z M45.2438453,52.6868927 L44.9440124,52.6868927 L44.7867667,53.9906042 L45.0858,53.9906042 L45.2438453,52.6868927 Z M45.1734845,51.8953535 C45.0858,51.8953535 45.0130406,51.9695265 45.0130406,52.0591296 C45.0130406,52.1514397 45.0892648,52.2288611 45.1772157,52.2288611 C45.2654332,52.2288611 45.3411244,52.1549589 45.3411244,52.0650851 C45.3411244,51.9752113 45.262235,51.8953535 45.1734845,51.8953535 Z M44.4203044,52.9714028 L44.6982827,52.9714028 L44.732397,52.6868927 L44.4549517,52.6868927 L44.5271781,52.0848465 L44.2284113,52.0848465 L44.1551188,52.6868927 L43.9850803,52.6868927 L43.9498999,52.9714028 L44.1210045,52.9714028 L43.9976067,53.9906042 L44.2974395,53.9906042 L44.4203044,52.9714028 Z M43.0069589,52.9102237 C43.2121778,52.9102237 43.3574302,53.0707513 43.3574302,53.3022034 C43.3574302,53.5547704 43.1714006,53.7664611 42.9509901,53.7664611 C42.7521676,53.7664611 42.61038,53.6067456 42.61038,53.3750228 C42.61038,53.112169 42.7836167,52.9102237 43.0069589,52.9102237 Z M43.723093,52.6868927 L43.4240597,52.6868927 L43.4016722,52.8560828 C43.2689462,52.7090904 43.1524778,52.6552203 42.9693798,52.6552203 C42.5821291,52.6552203 42.3081484,52.9592211 42.3081484,53.3915358 C42.3081484,53.5902327 42.3646503,53.7407442 42.4837839,53.8593127 C42.5879924,53.9613682 42.7332448,54.0217352 42.8840941,54.0217352 C43.0352098,54.0217352 43.1396849,53.9776104 43.281739,53.8492966 L43.266281,53.9906042 L43.5658473,53.9906042 L43.723093,52.6868927 Z M41.2418096,52.6868927 L40.9419767,52.6868927 L40.784731,53.9906042 L41.0837643,53.9906042 L41.1591889,53.3628411 C41.1845082,53.1611665 41.2159573,53.0804966 41.2953797,53.0006389 C41.352148,52.9427082 41.4278392,52.9102237 41.5128585,52.9102237 C41.6359898,52.9102237 41.7026193,52.9714028 41.7026193,53.0867228 C41.7026193,53.112169 41.6954233,53.1703704 41.6898265,53.2250527 L41.5984108,53.9906042 L41.896911,53.9906042 L41.9827299,53.2921873 C41.9947232,53.1833642 42.0016526,53.112169 42.0016526,53.0512606 C42.0016526,52.9267366 41.9792651,52.8563535 41.9153008,52.7859704 C41.8409422,52.7025935 41.7178109,52.6552203 41.5888161,52.6552203 C41.4560901,52.6552203 41.358278,52.6960966 41.2292832,52.8078975 L41.2418096,52.6868927 Z M40.1592131,52.6868927 L39.8593802,52.6868927 L39.7026676,53.9906042 L40.0025004,53.9906042 L40.0813898,53.3406434 C40.1029777,53.1576473 40.1312287,53.0748118 40.1850653,53.0071358 C40.2223778,52.9592211 40.2855426,52.9302558 40.3457757,52.9302558 C40.4022776,52.9302558 40.4531825,52.9529949 40.5102174,53.0036166 L40.7018439,52.7540273 C40.6170911,52.6738989 40.5608558,52.6517011 40.4561142,52.6517011 C40.3361811,52.6517011 40.2639547,52.6868927 40.1472197,52.7995056 L40.1592131,52.6868927 Z M38.4721535,53.2023135 C38.523325,52.9976611 38.633397,52.9010197 38.8159619,52.9010197 C39.0054562,52.9010197 39.11233,53.0006389 39.1445787,53.2023135 L38.4721535,53.2023135 Z M39.4473432,53.4483837 L39.4500084,53.3403727 C39.4500084,52.9142842 39.2104086,52.6446628 38.8319529,52.6446628 C38.4404379,52.6446628 38.1475345,52.9592211 38.1475345,53.3750228 C38.1475345,53.772958 38.4065901,54.032022 38.7999708,54.032022 C39.0496982,54.032022 39.200814,53.9518935 39.3524628,53.7442634 L39.1285876,53.6151375 C39.0560947,53.7209828 38.9457562,53.7756651 38.8066337,53.7756651 C38.5990161,53.7756651 38.4633584,53.6508704 38.4537638,53.4483837 L39.4473432,53.4483837 Z M37.750689,52.9714028 L38.0281344,52.9714028 L38.0625152,52.6868927 L37.7850699,52.6868927 L37.8575628,52.0848465 L37.5577299,52.0848465 L37.4855035,52.6868927 L37.3146654,52.6868927 L37.2805511,52.9714028 L37.4508562,52.9714028 L37.3274583,53.9906042 L37.6272911,53.9906042 L37.750689,52.9714028 Z M36.2400645,52.6868927 L35.9404981,52.6868927 L35.7819199,53.9906042 L36.0820192,53.9906042 L36.1577104,53.3628411 C36.1830296,53.1611665 36.2144787,53.0804966 36.2939011,53.0006389 C36.3501364,52.9427082 36.4258276,52.9102237 36.5113799,52.9102237 C36.6337117,52.9102237 36.6998082,52.9714028 36.6998082,53.0867228 C36.6998082,53.112169 36.6942113,53.1703704 36.6872818,53.2250527 L36.5961326,53.9906042 L36.895699,53.9906042 L36.9804517,53.2921873 C36.9932446,53.1833642 36.9993745,53.112169 36.9993745,53.0512606 C36.9993745,52.9267366 36.976987,52.8563535 36.9146218,52.7859704 C36.8386641,52.7025935 36.7160658,52.6552203 36.5873375,52.6552203 C36.4540785,52.6552203 36.3570659,52.6960966 36.2278046,52.8078975 L36.2400645,52.6868927 Z M35.5873617,51.8539358 L35.2744694,51.8539358 L35.0159469,53.9906042 L35.3283061,53.9906042 L35.5873617,51.8539358 Z M33.3507418,51.6555096 L33.0509089,51.6555096 L32.7678667,53.9906042 L33.0669,53.9906042 L33.1423246,53.369338 L33.6095309,53.9906042 L33.9754602,53.9906042 L33.4325629,53.282442 L34.1047215,52.6868927 L33.7036118,52.6868927 L33.1647122,53.1925682 L33.3507418,51.6555096 Z M31.6983296,52.6868927 L31.3984968,52.6868927 L31.240718,53.9906042 L31.5405509,53.9906042 L31.616242,53.3628411 C31.6415613,53.1611665 31.6730104,53.0804966 31.7524328,53.0006389 C31.8092011,52.9427082 31.8846258,52.9102237 31.969645,52.9102237 C32.0930429,52.9102237 32.1591394,52.9714028 32.1591394,53.0867228 C32.1591394,53.112169 32.152743,53.1703704 32.145547,53.2250527 L32.0549308,53.9906042 L32.3544972,53.9906042 L32.4389834,53.2921873 C32.4517763,53.1833642 32.4581727,53.112169 32.4581727,53.0512606 C32.4581727,52.9267366 32.4363182,52.8563535 32.3726204,52.7859704 C32.2974623,52.7025935 32.1745974,52.6552203 32.0453362,52.6552203 C31.9131432,52.6552203 31.8150645,52.6960966 31.6858033,52.8078975 L31.6983296,52.6868927 Z M30.2700591,52.9102237 C30.4744785,52.9102237 30.6194644,53.0707513 30.6194644,53.3022034 C30.6194644,53.5547704 30.4334347,53.7664611 30.2127578,53.7664611 C30.0139353,53.7664611 29.8716146,53.6067456 29.8716146,53.3750228 C29.8716146,53.112169 30.0456509,52.9102237 30.2700591,52.9102237 Z M30.9851272,52.6868927 L30.6855609,52.6868927 L30.6637064,52.8560828 C30.5315134,52.7090904 30.415045,52.6552203 30.2319471,52.6552203 C29.8436302,52.6552203 29.5693831,52.9592211 29.5693831,53.3915358 C29.5693831,53.5902327 29.6258849,53.7407442 29.745818,53.8593127 C29.8505597,53.9613682 29.9950125,54.0217352 30.1461282,54.0217352 C30.2983101,54.0217352 30.4017191,53.9776104 30.5435067,53.8492966 L30.5280487,53.9906042 L30.8278815,53.9906042 L30.9851272,52.6868927 Z M28.4246879,53.0420566 L28.6147153,53.0420566 C28.8977575,53.0420566 29.0115607,53.1254335 29.0115607,53.3365828 C29.0115607,53.4684158 28.9606557,53.5804873 28.876436,53.638418 C28.8127382,53.6801065 28.7277189,53.6958073 28.5542156,53.6958073 L28.3457985,53.6958073 L28.4246879,53.0420566 Z M28.5323612,52.148462 L28.6392349,52.148462 C28.8511168,52.148462 28.9449312,52.2288611 28.9449312,52.4115865 C28.9449312,52.5133713 28.9108169,52.6192166 28.8511168,52.6868927 C28.7908837,52.7572758 28.6960033,52.7892189 28.544621,52.7892189 L28.45667,52.7892189 L28.5323612,52.148462 Z M28.2578475,51.8539358 L27.999325,53.9906042 L28.5542156,53.9906042 C28.8127382,53.9906042 28.9198785,53.9711135 29.03075,53.9104758 C29.2098502,53.8078789 29.3231203,53.5937518 29.3231203,53.359322 C29.3231203,53.2088104 29.2732815,53.0775189 29.1847975,52.9976611 C29.1218992,52.9427082 29.0675295,52.9178034 28.9515941,52.888838 C29.1624099,52.7737887 29.2570239,52.6162389 29.2570239,52.3950735 C29.2570239,52.2407721 29.1967908,52.0905313 29.0997782,51.9949727 C28.9987678,51.8923758 28.8788347,51.8539358 28.6453648,51.8539358 L28.2578475,51.8539358 Z M26.1094452,52.6868927 L25.8098788,52.6868927 L25.6531662,53.9906042 L25.9527325,53.9906042 L26.0278906,53.3628411 C26.0534764,53.1611665 26.0849255,53.0804966 26.1638149,53.0006389 C26.2203167,52.9427082 26.2968074,52.9102237 26.3810271,52.9102237 C26.504425,52.9102237 26.5705215,52.9714028 26.5705215,53.0867228 C26.5705215,53.112169 26.5638585,53.1703704 26.5579951,53.2250527 L26.4663129,53.9906042 L26.7658792,53.9906042 L26.8503655,53.2921873 C26.8631583,53.1833642 26.8700878,53.112169 26.8700878,53.0512606 C26.8700878,52.9267366 26.8474338,52.8563535 26.784802,52.7859704 C26.7091109,52.7025935 26.586246,52.6552203 26.4561852,52.6552203 C26.3245253,52.6552203 26.2267131,52.6960966 26.0979849,52.8078975 L26.1094452,52.6868927 Z M24.4221191,53.2023135 C24.4732906,52.9976611 24.5828295,52.9010197 24.766194,52.9010197 C24.9551553,52.9010197 25.0625621,53.0006389 25.0942777,53.2023135 L24.4221191,53.2023135 Z M25.3970423,53.4483837 L25.3997075,53.3403727 C25.3997075,52.9142842 25.1609073,52.6446628 24.781652,52.6446628 C24.3914695,52.6446628 24.0977666,52.9592211 24.0977666,53.3750228 C24.0977666,53.772958 24.3565557,54.032022 24.7507359,54.032022 C25.0001969,54.032022 25.1510461,53.9518935 25.3026949,53.7442634 L25.0785532,53.6151375 C25.0063268,53.7209828 24.8954552,53.7756651 24.7563328,53.7756651 C24.5487152,53.7756651 24.413857,53.6508704 24.4031963,53.4483837 L25.3970423,53.4483837 Z M23.9018758,52.8309073 C23.7699493,52.6960966 23.6566791,52.6419558 23.5015656,52.6419558 C23.2398448,52.6419558 23.0479518,52.8149358 23.0479518,53.0520727 C23.0479518,53.2088104 23.1135153,53.3051811 23.3024766,53.4107558 C23.5143585,53.5263465 23.5396777,53.5520634 23.5396777,53.6316504 C23.5396777,53.7180051 23.4666517,53.7794549 23.3685731,53.7794549 C23.2686288,53.7794549 23.1985345,53.7407442 23.1071188,53.6316504 L22.9120276,53.772958 C23.0444871,53.9613682 23.1737483,54.032022 23.3781677,54.032022 C23.6566791,54.032022 23.8424422,53.869058 23.8424422,53.6224465 C23.8424422,53.4519028 23.772881,53.3628411 23.5490058,53.2310082 C23.3845642,53.1411344 23.3501833,53.1032358 23.3501833,53.0293335 C23.3501833,52.9529949 23.4197445,52.8920865 23.5114268,52.8920865 C23.5839197,52.8920865 23.6497497,52.9267366 23.7321038,53.0036166 L23.9018758,52.8309073 Z M22.7257314,52.6868927 L22.4266981,52.6868927 L22.2686529,53.9906042 L22.5684858,53.9906042 L22.7257314,52.6868927 Z M22.6564367,51.8953535 C22.5684858,51.8953535 22.4962594,51.9695265 22.4962594,52.0591296 C22.4962594,52.1514397 22.5714175,52.2288611 22.6591019,52.2288611 C22.7475859,52.2288611 22.8235436,52.1549589 22.8235436,52.0650851 C22.8235436,51.9752113 22.7449207,51.8953535 22.6564367,51.8953535 Z M21.0384054,53.2023135 C21.0887773,52.9976611 21.1996488,52.9010197 21.3827467,52.9010197 C21.5722411,52.9010197 21.6791149,53.0006389 21.710564,53.2023135 L21.0384054,53.2023135 Z M22.0133286,53.4483837 L22.0167933,53.3403727 C22.0167933,52.9142842 21.7766605,52.6446628 21.3982048,52.6446628 C21.0069562,52.6446628 20.7135198,52.9592211 20.7135198,53.3750228 C20.7135198,53.772958 20.9725754,54.032022 21.3664891,54.032022 C21.6156836,54.032022 21.7667993,53.9518935 21.9184481,53.7442634 L21.6948394,53.6151375 C21.62208,53.7209828 21.5117415,53.7756651 21.3734186,53.7756651 C21.1650015,53.7756651 21.0288107,53.6508704 21.0197491,53.4483837 L22.0133286,53.4483837 Z M20.2974851,52.9714028 L20.5717322,52.9714028 L20.6066461,52.6868927 L20.3315994,52.6868927 L20.392099,52.1904211 C20.4171517,51.9849566 20.4613937,51.9210704 20.5682675,51.9210704 C20.6255688,51.9210704 20.6636809,51.9405611 20.7263127,51.9917242 L20.7582949,51.7226442 C20.650355,51.6714811 20.5842585,51.6519904 20.5024375,51.6519904 C20.4011606,51.6519904 20.3001502,51.6904304 20.2340538,51.7545873 C20.1618274,51.8282189 20.1237153,51.9302744 20.1021273,52.1035251 L20.0317665,52.6868927 L19.8372083,52.6868927 L19.8022944,52.9714028 L19.9979187,52.9714028 L19.8753204,53.9906042 L20.1748867,53.9906042 L20.2974851,52.9714028 Z M19.360674,52.9714028 L19.6349211,52.9714028 L19.6701015,52.6868927 L19.3958544,52.6868927 L19.4552879,52.1904211 C19.4803406,51.9849566 19.5251156,51.9210704 19.6317229,51.9210704 C19.6892908,51.9210704 19.7268698,51.9405611 19.7900346,51.9917242 L19.8214838,51.7226442 C19.7138104,51.6714811 19.6485135,51.6519904 19.5661594,51.6519904 C19.4651491,51.6519904 19.3638722,51.6904304 19.2980422,51.7545873 C19.2250163,51.8282189 19.1874372,51.9302744 19.1653162,52.1035251 L19.095755,52.6868927 L18.9006637,52.6868927 L18.8654833,52.9714028 L19.0608411,52.9714028 L18.9385093,53.9906042 L19.2383422,53.9906042 L19.360674,52.9714028 Z M18.6639957,52.6868927 L18.3641628,52.6868927 L18.2069171,53.9906042 L18.5064835,53.9906042 L18.6639957,52.6868927 Z M18.5949675,51.8953535 C18.5064835,51.8953535 18.433724,51.9695265 18.433724,52.0591296 C18.433724,52.1514397 18.5094152,52.2288611 18.5978992,52.2288611 C18.6858501,52.2288611 18.7610083,52.1549589 18.7610083,52.0650851 C18.7610083,51.9752113 18.6823854,51.8953535 18.5949675,51.8953535 Z M17.2346591,52.9102237 C17.4401446,52.9102237 17.5851304,53.0707513 17.5851304,53.3022034 C17.5851304,53.5547704 17.3993673,53.7664611 17.1781573,53.7664611 C16.9796013,53.7664611 16.8375472,53.6067456 16.8375472,53.3750228 C16.8375472,53.112169 17.0105174,52.9102237 17.2346591,52.9102237 Z M17.9507932,52.6868927 L17.6514934,52.6868927 L17.6293724,52.8560828 C17.4969129,52.7090904 17.3804445,52.6552203 17.1970801,52.6552203 C16.8095628,52.6552203 16.5350491,52.9592211 16.5350491,53.3915358 C16.5350491,53.5902327 16.592084,53.7407442 16.7120171,53.8593127 C16.8162257,53.9613682 16.9606785,54.0217352 17.1117943,54.0217352 C17.2631766,54.0217352 17.3679182,53.9776104 17.5091728,53.8492966 L17.4934482,53.9906042 L17.792748,53.9906042 L17.9507932,52.6868927 Z M15.4599151,52.148462 L15.5921081,52.148462 C15.6835238,52.148462 15.7656114,52.1611851 15.8133181,52.1804051 C15.9137954,52.225342 15.9740285,52.3309166 15.9740285,52.4592304 C15.9740285,52.5583082 15.9359164,52.6576566 15.8764829,52.7247913 C15.8037235,52.8051904 15.7093761,52.8341558 15.5233464,52.8341558 L15.3780941,52.8341558 L15.4599151,52.148462 Z M15.759748,53.090242 C15.9271213,53.0485535 16.0148058,53.0071358 16.0998251,52.9234882 C16.2192252,52.8122287 16.2858547,52.6446628 16.2858547,52.4622082 C16.2858547,52.2702789 16.2101636,52.0905313 16.084367,51.9822496 C15.9769602,51.8888566 15.8413025,51.8539358 15.5987711,51.8539358 L15.185668,51.8539358 L14.9271455,53.9906042 L15.2392381,53.9906042 L15.3429137,53.112169 L15.4572499,53.112169 L15.9551057,53.9906042 L16.2858547,53.9906042 L15.759748,53.090242 Z M13.7030278,52.9714028 L13.977275,52.9714028 L14.0121888,52.6868927 L13.7371422,52.6868927 L13.7976418,52.1904211 C13.822961,51.9849566 13.867203,51.9210704 13.9738102,51.9210704 C14.0313781,51.9210704 14.0692237,51.9405611 14.132122,51.9917242 L14.1641042,51.7226442 C14.0558978,51.6714811 13.9903344,51.6519904 13.9085133,51.6519904 C13.8067034,51.6519904 13.705693,51.6904304 13.6403961,51.7545873 C13.5673701,51.8282189 13.5300576,51.9302744 13.5076701,52.1035251 L13.4386419,52.6868927 L13.2427511,52.6868927 L13.2078372,52.9714028 L13.4034615,52.9714028 L13.2808632,53.9906042 L13.5798965,53.9906042 L13.7030278,52.9714028 Z M12.3181998,52.9010197 C12.5522027,52.9010197 12.7070497,53.0645251 12.7070497,53.3108659 C12.7070497,53.5804873 12.5359451,53.7756651 12.2998101,53.7756651 C12.062609,53.7756651 11.8984338,53.5991659 11.8984338,53.3433504 C11.8984338,53.0867228 12.0756684,52.9010197 12.3181998,52.9010197 Z M12.3181998,52.6446628 C11.9053633,52.6446628 11.5962023,52.9456859 11.5962023,53.350118 C11.5962023,53.7472411 11.8925704,54.032022 12.3062065,54.032022 C12.703585,54.032022 13.0090147,53.7250434 13.0090147,53.3273789 C13.0090147,52.9234882 12.725173,52.6446628 12.3181998,52.6446628 Z M10.2145725,52.6868927 L9.9155392,52.6868927 L9.75802701,53.9906042 L10.0573268,53.9906042 L10.1364827,53.3406434 C10.1586037,53.1576473 10.1865881,53.0748118 10.2404248,53.0071358 C10.2777373,52.9592211 10.3411686,52.9302558 10.4011352,52.9302558 C10.457637,52.9302558 10.5080089,52.9529949 10.5650438,53.0036166 L10.7572033,52.7540273 C10.6721841,52.6738989 10.6162153,52.6517011 10.5114737,52.6517011 C10.3915405,52.6517011 10.3193141,52.6868927 10.2023127,52.7995056 L10.2145725,52.6868927 Z M8.52777948,53.2023135 C8.5781514,52.9976611 8.68848989,52.9010197 8.87158782,52.9010197 C9.06081567,52.9010197 9.16768943,53.0006389 9.19913856,53.2023135 L8.52777948,53.2023135 Z M9.50270267,53.4483837 L9.50563437,53.3403727 C9.50563437,52.9142842 9.2660346,52.6446628 8.88731239,52.6446628 C8.49579731,52.6446628 8.20289392,52.9592211 8.20289392,53.3750228 C8.20289392,53.772958 8.46114996,54.032022 8.85586326,54.032022 C9.10505767,54.032022 9.25617343,53.9518935 9.40755571,53.7442634 L9.18368051,53.6151375 C9.11145411,53.7209828 9.00111562,53.7756651 8.86225969,53.7756651 C8.65384254,53.7756651 8.51818483,53.6508704 8.5088567,53.4483837 L9.50270267,53.4483837 Z M7.28234042,52.9102237 C7.49955267,52.9102237 7.65120147,53.0707513 7.65120147,53.3078882 C7.65120147,53.5618087 7.46543835,53.7664611 7.2319685,53.7664611 C7.02035314,53.7664611 6.87243559,53.6067456 6.87243559,53.3790834 C6.87243559,53.1091913 7.04593887,52.9102237 7.28234042,52.9102237 Z M7.08644962,51.6555096 L6.7871498,51.6555096 L6.50304151,53.9906042 L6.80234133,53.9906042 L6.82526189,53.8143758 C6.96651648,53.9648873 7.09631079,54.0217352 7.28580516,54.0217352 C7.66079612,54.0217352 7.9536995,53.7050113 7.9536995,53.2992256 C7.9536995,52.9267366 7.70104035,52.6552203 7.35190165,52.6552203 C7.20345107,52.6552203 7.11203536,52.6904118 6.94812673,52.8051904 L7.08644962,51.6555096 Z M4.76827523,52.6868927 L4.45644906,52.6868927 L4.29840383,53.9906042 L4.59797017,53.9906042 L4.68645418,53.2637634 C4.70217875,53.1476313 4.73069618,53.0645251 4.77147345,53.0098428 C4.81918019,52.9489344 4.90100125,52.9102237 4.97935757,52.9102237 C5.08969606,52.9102237 5.15286085,52.9684251 5.15286085,53.0748118 C5.15286085,53.0970096 5.14726397,53.1606251 5.14086753,53.2188265 L5.04598709,53.9906042 L5.34901816,53.9906042 L5.43696913,53.2637634 C5.4526937,53.1254335 5.4777464,53.0485535 5.52198841,52.9976611 C5.56916211,52.9456859 5.64805147,52.9102237 5.72720734,52.9102237 C5.84021101,52.9102237 5.9033758,52.9714028 5.89777892,53.0804966 C5.89511374,53.1192073 5.891649,53.1703704 5.88152132,53.2380465 L5.79037213,53.9906042 L6.09313668,53.9906042 L6.17788944,53.273238 C6.20294214,53.0804966 6.20294214,53.0677735 6.20294214,53.0098428 C6.20294214,52.7794735 6.0712822,52.6552203 5.82182126,52.6552203 C5.65764612,52.6552203 5.54730763,52.7123389 5.40898474,52.8631211 C5.34235521,52.7025935 5.26666407,52.6517011 5.1064867,52.6517011 C4.96096782,52.6517011 4.86288916,52.6931189 4.75255067,52.8078975 L4.76827523,52.6868927 Z M3.06895586,53.2023135 C3.1195943,52.9976611 3.22966627,52.9010197 3.41223117,52.9010197 C3.60172553,52.9010197 3.70859929,53.0006389 3.74004843,53.2023135 L3.06895586,53.2023135 Z M4.04281298,53.4483837 L4.04627772,53.3403727 C4.04627772,52.9142842 3.80667795,52.6446628 3.42848877,52.6446628 C3.03670717,52.6446628 2.74380379,52.9592211 2.74380379,53.3750228 C2.74380379,53.772958 3.00232634,54.032022 3.39677312,54.032022 C3.64596754,54.032022 3.79761633,53.9518935 3.94873209,53.7442634 L3.72485689,53.6151375 C3.65183094,53.7209828 3.54149244,53.7756651 3.40290304,53.7756651 C3.19448588,53.7756651 3.05909469,53.6508704 3.05003308,53.4483837 L4.04281298,53.4483837 Z M2.22009573,51.6555096 L1.25876496,53.4491958 L0.728127435,51.7034242 L0,53.9906042 L0.317956087,53.9906042 L0.737722087,52.628962 L1.18920374,54.1408451 L2.00288348,52.628962 L2.09669785,53.9906042 L2.39359901,53.9906042 L2.22009573,51.6555096 Z" id="Fill-1"></path>
                <polyline id="Fill-2" points="0.0138589409 44.268262 0.0138589409 45.2076056 1.58285097 45.2076056 1.58285097 49.5724406 2.68170507 49.5724406 2.68170507 45.2076056 4.24376762 45.2076056 4.24376762 44.268262 0.0138589409 44.268262"></polyline>
                <path d="M5.81435876,44.2685327 L7.04913709,44.2685327 L8.89637401,49.5724406 L7.71330018,49.5724406 L7.36869229,48.4823146 L5.4452312,48.4823146 L5.09102865,49.5724406 L3.94953165,49.5724406 L5.81435876,44.2685327 Z M5.74213235,47.5681465 L7.07952015,47.5681465 L6.41988787,45.4812876 L5.74213235,47.5681465 Z" id="Fill-3"></path>
                <polyline id="Fill-4" points="12.8195204 44.2685327 12.8195204 45.2076056 11.2566583 45.2076056 11.2566583 49.5724406 10.1586037 49.5724406 10.1586037 45.2076056 8.58934516 45.2076056 8.58934516 44.2685327 12.8195204 44.2685327"></polyline>
                <path d="M16.7967699,44.4049676 C16.989196,44.4894273 17.152305,44.6131392 17.2860971,44.7755617 C17.3967021,44.9103724 17.4838535,45.058989 17.5483509,45.2222237 C17.6128483,45.3851876 17.6448305,45.5708907 17.6448305,45.7796037 C17.6448305,46.0313586 17.5829983,46.2795944 17.4574682,46.5229575 C17.3322047,46.7663206 17.1251202,46.9382177 16.8372806,47.0391904 C17.078213,47.1374561 17.2487846,47.2776808 17.3492619,47.4582406 C17.4500057,47.6398831 17.5001111,47.9165428 17.5001111,48.2876783 L17.5001111,48.6444665 C17.5001111,48.8867468 17.5094393,49.0507935 17.5286286,49.1368775 C17.5579456,49.2743952 17.6245751,49.3748265 17.7306493,49.4397955 L17.7306493,49.5727113 L16.525721,49.5727113 C16.4929393,49.4549549 16.4689526,49.3604792 16.4545607,49.2882011 C16.4263097,49.1395845 16.4111182,48.987178 16.4087195,48.8312524 L16.4015236,48.3385707 C16.3972593,48.0001904 16.3399579,47.7744231 16.2288198,47.6618101 C16.1184813,47.5494679 15.9111303,47.4931614 15.6078327,47.4931614 L14.5412273,47.4931614 L14.5412273,49.5727113 L13.4751549,49.5727113 L13.4751549,44.2685327 L15.973229,44.2685327 C16.3298302,44.2758417 16.6046103,44.3210493 16.7967699,44.4049676 M14.5412273,45.1900099 L14.5412273,46.6147262 L15.7157725,46.6147262 C15.9492424,46.6147262 16.1243447,46.5857608 16.2408131,46.5283715 C16.4473647,46.4276696 16.5507737,46.228702 16.5507737,45.9309273 C16.5507737,45.6098721 16.4502964,45.3938501 16.2506743,45.2834028 C16.1384702,45.2211408 15.9705638,45.1900099 15.7461556,45.1900099 L14.5412273,45.1900099" id="Fill-5"></path>
                <path d="M20.2121993,44.2685327 L21.4469776,44.2685327 L23.2942145,49.5724406 L22.1111407,49.5724406 L21.7665328,48.4823146 L19.8430717,48.4823146 L19.4888692,49.5724406 L18.3473722,49.5724406 L20.2121993,44.2685327 Z M20.1399729,47.5681465 L21.4773607,47.5681465 L20.8177284,45.4812876 L20.1399729,47.5681465 Z" id="Fill-6"></path>
                <path d="M29.8694824,44.8332217 C30.0296598,45.058989 30.1096152,45.3288811 30.1096152,45.6431687 C30.1096152,45.9672017 30.0283272,46.2276192 29.8676168,46.4238797 C29.7775337,46.534327 29.6442747,46.635029 29.4691723,46.7262563 C29.7354238,46.8242513 29.9369115,46.9801769 30.0725692,47.1940332 C30.2079604,47.4076189 30.275656,47.6664121 30.275656,47.9717665 C30.275656,48.2860541 30.1983658,48.5673158 30.0432522,48.8169051 C29.944374,48.9823054 29.8212427,49.1219887 29.6733251,49.234331 C29.5067513,49.3639983 29.3095279,49.4525186 29.0835206,49.5004332 C28.8569802,49.54916 28.6107175,49.5724406 28.345532,49.5724406 L25.9921772,49.5724406 L25.9921772,44.2685327 L28.515837,44.2685327 C29.1525488,44.278278 29.6042969,44.4661468 29.8694824,44.8332217 Z M27.0339964,45.1900099 L27.0339964,46.3591814 L28.3031556,46.3591814 C28.5299625,46.3591814 28.7141265,46.315598 28.8553811,46.2281606 C28.9969022,46.1401817 29.067796,45.9847975 29.067796,45.7620079 C29.067796,45.5145842 28.9739816,45.3513496 28.7871525,45.2725746 C28.6256425,45.217351 28.4204236,45.1900099 28.1698966,45.1900099 L27.0339964,45.1900099 Z M27.0339964,47.2368045 L27.0339964,48.6517755 L28.3020895,48.6517755 C28.5286299,48.6517755 28.7045319,48.6201031 28.8305949,48.5578411 C29.0592674,48.4430625 29.1741367,48.2224386 29.1741367,47.8956986 C29.1741367,47.619851 29.0632652,47.4306287 28.8412556,47.3274904 C28.7173247,47.2698304 28.5435549,47.2395115 28.3194132,47.2368045 L27.0339964,47.2368045 Z" id="Fill-7"></path>
                <path d="M32.5453241,44.2685327 L33.7798359,44.2685327 L35.6273394,49.5724406 L34.4442655,49.5724406 L34.0996576,48.4823146 L32.1761966,48.4823146 L31.821994,49.5724406 L30.680497,49.5724406 L32.5453241,44.2685327 Z M32.4730977,47.5681465 L33.8104855,47.5681465 L33.1508532,45.4812876 L32.4730977,47.5681465 Z" id="Fill-8"></path>
                <polyline id="Fill-9" points="36.2741788 44.2685327 37.4180744 44.2685327 39.4910522 47.9666231 39.4910522 44.2685327 40.5078187 44.2685327 40.5078187 49.5724406 39.4166936 49.5724406 37.2906788 45.8093811 37.2906788 49.5724406 36.2741788 49.5724406 36.2741788 44.2685327"></polyline>
                <polyline id="Fill-10" points="41.4198436 44.2685327 42.493112 44.2685327 42.493112 46.4536572 44.511187 44.2685327 45.9210677 44.2685327 43.7779957 46.4498673 46.0311397 49.5724406 44.6279219 49.5724406 43.0186857 47.257378 42.493112 47.7985158 42.493112 49.5724406 41.4198436 49.5724406 41.4198436 44.2685327"></polyline>
                <path d="M48.1787425,44.268262 L46.3141819,49.5724406 L47.4556789,49.5724406 L47.8098815,48.4823146 L49.7330761,48.4823146 L50.0779505,49.5724406 L51.2612908,49.5724406 L49.4137874,44.268262 L48.1787425,44.268262 Z M48.7845382,45.4812876 L49.444437,47.5681465 L48.1067826,47.5681465 L48.7845382,45.4812876 Z" id="Fill-11"></path>
                <polyline id="Fill-12" points="40.732227 28.7525786 40.3820222 30.4101006 37.6248925 30.4101006 36.0180549 38.1127186 34.0802018 38.1127186 35.6867729 30.4101006 32.9171169 30.4101006 33.2670551 28.7525786 40.732227 28.7525786"></polyline>
                <path d="M48.1811412,29.7495823 C48.3810298,30.1477882 48.4250052,30.6239569 48.3125346,31.1783592 C48.1915354,31.7498158 47.9522021,32.2092008 47.5934688,32.5565144 C47.397578,32.7514214 47.1286612,32.9290034 46.786985,33.089531 C47.2203435,33.2635938 47.5175111,33.5386293 47.677955,33.9154496 C47.8383989,34.2919992 47.8623855,34.7492186 47.7499149,35.2868372 C47.63318,35.8417808 47.390915,36.3390645 47.0241861,36.7792296 C46.786985,37.0713194 46.5162026,37.3168482 46.211839,37.5155451 C45.8696298,37.7442901 45.4895749,37.9010279 45.0706085,37.9854876 C44.6519086,38.0707594 44.2070899,38.1127186 43.7358859,38.1127186 L39.5595473,38.1127186 L41.5163232,28.7525786 L45.9927611,28.7525786 C47.1180005,28.769633 47.8477271,29.101787 48.1811412,29.7495823 Z M42.2540453,33.9915175 L41.7351345,36.4871397 L43.9984062,36.4871397 C44.4029807,36.4871397 44.7278662,36.4321868 44.9738624,36.3220101 C45.4280093,36.118982 45.7158488,35.7294386 45.8365815,35.1536507 C45.9367923,34.6666538 45.807531,34.3323341 45.4490642,34.1504208 C45.2489091,34.0483654 44.9488097,33.9958487 44.5487661,33.9915175 L42.2540453,33.9915175 Z M43.0106901,30.3781575 L42.5791974,32.4422772 L44.842469,32.4422772 C45.2470435,32.4422772 45.5919179,32.3645851 45.8770923,32.2102837 C46.1627997,32.0557115 46.3469637,31.7817589 46.4309169,31.3878842 C46.5180683,30.9520504 46.4117276,30.6637504 46.1118947,30.5243377 C45.8408458,30.4271549 45.4821124,30.3781575 45.0362277,30.3781575 L43.0106901,30.3781575 Z" id="Fill-13"></path>
                <polyline id="Fill-14" points="44.3670007 8.9183507 44.3670007 9.34443915 50.5185049 9.34443915 50.5185049 41.1608482 0.433358422 41.1608482 0.433358422 9.34443915 24.9207745 9.34443915 24.9207745 8.9183507 0.0133259047 8.9183507 0.0133259047 41.5866659 50.9401365 41.5866659 50.9401365 8.9183507 44.3670007 8.9183507"></polyline>
                <polyline id="Fill-15" points="8.63598583 38.1121772 23.1844091 12.3955465 16.2576038 12.3955465 1.70918054 38.1121772 8.63598583 38.1121772"></polyline>
                <polyline id="Fill-16" points="31.9043481 0.210337183 10.4560379 38.1121772 17.3983012 38.1121772 38.8298208 0.210337183 31.9043481 0.210337183"></polyline>
                <polyline id="Fill-17" points="26.1446256 38.1116358 44.1924314 6.21184986 37.2674917 6.21184986 19.2164877 38.1116358 26.1446256 38.1116358"></polyline>
            </g>
        </g>
    </g>
</svg>