<?xml version="1.0" encoding="UTF-8"?>
<svg width="252px" height="32px" viewBox="0 0 252 32" version="1.1" xmlns="http://www.w3.org/2000/svg" xmlns:xlink="http://www.w3.org/1999/xlink">
    <!-- Generator: Sketch 49.3 (51167) - http://www.bohemiancoding.com/sketch -->
    <title>Basta_negative_transparent_cmyk_long</title>
    <desc>Created with Sketch.</desc>
    <defs>
        <polygon id="path-1" points="0 72.3385 299.328 72.3385 299.328 0.0005 0 0.0005"></polygon>
    </defs>
    <g id="Page-1" stroke="none" stroke-width="1" fill="none" fill-rule="evenodd">
        <g id="Basta_negative_transparent_cmyk_long" transform="translate(-23.000000, -23.000000)">
            <path d="M184.4792,29.5545 C182.8512,29.5555 181.5642,28.2995 181.5442,26.6925 C181.5222,25.0415 182.8752,23.6975 184.5272,23.7305 C186.1282,23.7635 187.4032,25.0725 187.3932,26.6755 C187.3832,28.2855 186.0992,29.5545 184.4792,29.5545" id="Fill-1" fill="#FFFFFE"></path>
            <path d="M214.2292,29.5545 C212.6012,29.5555 211.3142,28.2995 211.2932,26.6925 C211.2722,25.0415 212.6252,23.6975 214.2762,23.7305 C215.8772,23.7635 217.1522,25.0725 217.1432,26.6755 C217.1332,28.2855 215.8492,29.5545 214.2292,29.5545" id="Fill-3" fill="#FFFFFE"></path>
            <path d="M271.7819,47.9583 C270.1539,47.9593 268.8669,46.7043 268.8469,45.0963 C268.8249,43.4443 270.1779,42.1013 271.8289,42.1343 C273.4309,42.1663 274.7059,43.4763 274.6959,45.0793 C274.6859,46.6873 273.4019,47.9583 271.7819,47.9583" id="Fill-5" fill="#DC3C3B"></path>
            <path d="M58.1354,24.8739 L71.9044,24.8739 C76.5954,24.8739 78.6354,28.0019 78.6354,30.6529 C78.6354,33.4749 76.9694,35.3789 74.7594,35.8549 C77.2064,36.2289 79.0764,38.4729 79.0764,41.3959 C79.0764,44.5579 76.9354,47.5499 72.3804,47.5499 L58.1354,47.5499 L58.1354,24.8739 Z M70.3054,33.3049 C71.0204,33.3049 71.6654,32.6589 71.6654,31.8429 C71.6654,31.0609 71.0204,30.4499 70.3054,30.4499 L65.0014,30.4499 L65.0014,33.3049 L70.3054,33.3049 Z M70.5094,41.9749 C71.4944,41.9749 72.1084,41.2939 72.1084,40.4439 C72.1084,39.6279 71.4944,38.8809 70.5094,38.8809 L65.0014,38.8809 L65.0014,41.9749 L70.5094,41.9749 Z" id="Fill-7" fill="#FFFFFE"></path>
            <path d="M92.4401,45.8157 C91.0451,47.3797 89.4821,47.9587 87.8161,47.9587 C83.8381,47.9587 80.5751,44.9657 80.5751,39.3227 C80.5751,33.8827 83.7711,30.7217 87.8161,30.7217 C89.4821,30.7217 91.1481,31.2987 92.4401,32.8627 L92.4401,31.1297 L98.5591,31.1297 L98.5591,47.5497 L92.4401,47.5497 L92.4401,45.8157 Z M92.4401,37.2487 C91.8621,36.5347 90.7061,36.1607 89.8891,36.1607 C88.2241,36.1607 86.8311,37.2827 86.8311,39.3227 C86.8311,41.3617 88.2241,42.5517 89.8891,42.5517 C90.7061,42.5517 91.8621,42.1447 92.4401,41.4307 L92.4401,37.2487 Z" id="Fill-9" fill="#FFFFFE"></path>
            <path d="M103.0143,41.3284 C104.3063,42.3484 107.0943,43.4024 108.9293,43.4024 C110.1873,43.4024 110.5613,43.0624 110.5613,42.6204 C110.5613,42.0754 109.8133,41.8724 108.2493,41.6684 C105.4963,41.2944 101.2463,40.7844 101.2463,36.3304 C101.2463,33.3724 103.8303,30.7214 108.5893,30.7214 C111.3433,30.7214 113.7913,31.5714 115.6963,32.8284 L113.4523,36.8064 C112.4313,35.9564 110.5273,35.1064 108.6233,35.1064 C107.7413,35.1064 107.0943,35.3454 107.0943,35.8204 C107.0943,36.2964 107.5703,36.5004 109.2013,36.7384 C111.9553,37.1464 116.4103,37.7244 116.4103,42.3144 C116.4103,45.5784 113.4853,47.9574 108.6233,47.9574 C105.5973,47.9574 102.3343,46.9034 100.5663,45.4414 L103.0143,41.3284 Z" id="Fill-11" fill="#FFFFFE"></path>
            <path d="M119.8776,42.7904 L119.8776,36.4334 L117.1576,36.4334 L117.1576,31.1284 L119.8776,31.1284 L119.8776,26.6424 L125.9976,26.6424 L125.9976,31.1284 L129.3286,31.1284 L129.3286,36.4334 L125.9976,36.4334 L125.9976,41.0214 C125.9976,41.8734 126.5416,42.5524 127.3576,42.5524 C127.9006,42.5524 128.4446,42.3824 128.5806,42.2464 L129.6686,46.8694 C129.0236,47.4474 127.5946,47.9584 125.5226,47.9584 C121.8836,47.9584 119.8776,46.2244 119.8776,42.7904" id="Fill-13" fill="#FFFFFE"></path>
            <path d="M142.3512,45.8157 C140.9562,47.3797 139.3932,47.9587 137.7272,47.9587 C133.7492,47.9587 130.4862,44.9657 130.4862,39.3227 C130.4862,33.8827 133.6822,30.7217 137.7272,30.7217 C139.3932,30.7217 141.0592,31.2987 142.3512,32.8627 L142.3512,31.1297 L148.4702,31.1297 L148.4702,47.5497 L142.3512,47.5497 L142.3512,45.8157 Z M142.3512,37.2487 C141.7732,36.5347 140.6172,36.1607 139.8012,36.1607 C138.1352,36.1607 136.7422,37.2827 136.7422,39.3227 C136.7422,41.3617 138.1352,42.5517 139.8012,42.5517 C140.6172,42.5517 141.7732,42.1447 142.3512,41.4307 L142.3512,37.2487 Z" id="Fill-15" fill="#FFFFFE"></path>
            <path d="M171.8884,45.8157 C170.4934,47.3797 168.9304,47.9587 167.2644,47.9587 C163.2874,47.9587 160.0234,44.9657 160.0234,39.3227 C160.0234,33.8827 163.2194,30.7217 167.2644,30.7217 C168.9304,30.7217 170.5964,31.2987 171.8884,32.8627 L171.8884,24.8737 L178.0074,24.8737 L178.0074,47.5497 L171.8884,47.5497 L171.8884,45.8157 Z M171.8884,37.2147 C171.3104,36.5007 170.1544,36.1267 169.3384,36.1267 C167.6724,36.1267 166.2794,37.2827 166.2794,39.3227 C166.2794,41.3617 167.6724,42.5517 169.3384,42.5517 C170.1544,42.5517 171.3104,42.1447 171.8884,41.4307 L171.8884,37.2147 Z" id="Fill-17" fill="#FFFFFE"></path>
            <mask id="mask-2" fill="white">
                <use xlink:href="#path-1"></use>
            </mask>
            <g id="Clip-20"></g>
            <polygon id="Fill-19" fill="#FFFFFE" mask="url(#mask-2)" points="181.409 47.5495 187.529 47.5495 187.529 31.1295 181.409 31.1295"></polygon>
            <path d="M192.9342,47.4144 C194.1932,48.6724 196.0622,49.2164 197.8302,49.2164 C199.2572,49.2164 201.6372,48.6724 201.6372,45.7814 L201.6372,44.8974 C200.2442,46.4964 198.7132,47.1074 197.0142,47.1074 C193.0712,47.1074 189.8072,44.5234 189.8072,38.9144 C189.8072,33.4414 192.9682,30.7224 197.0142,30.7224 C198.7132,30.7224 200.3122,31.2994 201.6372,32.8634 L201.6372,31.1294 L207.7572,31.1294 L207.7572,45.7814 C207.7572,52.8874 201.9102,54.2134 197.8302,54.2134 C195.0082,54.2134 192.4932,53.4654 190.3512,51.7664 L192.9342,47.4144 Z M201.6372,37.1814 C201.0602,36.5004 199.9042,36.1274 199.1212,36.1274 C197.4562,36.1274 196.0622,36.9094 196.0622,38.9144 C196.0622,40.9204 197.4562,41.7024 199.1212,41.7024 C199.9042,41.7024 201.0602,41.3294 201.6372,40.6474 L201.6372,37.1814 Z" id="Fill-21" fill="#FFFFFE" mask="url(#mask-2)"></path>
            <polygon id="Fill-22" fill="#FFFFFE" mask="url(#mask-2)" points="211.159 47.5495 217.279 47.5495 217.279 31.1295 211.159 31.1295"></polygon>
            <path d="M221.9362,42.7904 L221.9362,36.4334 L219.2162,36.4334 L219.2162,31.1284 L221.9362,31.1284 L221.9362,26.6424 L228.0562,26.6424 L228.0562,31.1284 L231.3872,31.1284 L231.3872,36.4334 L228.0562,36.4334 L228.0562,41.0214 C228.0562,41.8734 228.6002,42.5524 229.4152,42.5524 C229.9582,42.5524 230.5022,42.3824 230.6392,42.2464 L231.7272,46.8694 C231.0822,47.4474 229.6532,47.9584 227.5802,47.9584 C223.9422,47.9584 221.9362,46.2244 221.9362,42.7904" id="Fill-23" fill="#FFFFFE" mask="url(#mask-2)"></path>
            <path d="M244.4089,45.8157 C243.0149,47.3797 241.4509,47.9587 239.7849,47.9587 C235.8079,47.9587 232.5449,44.9657 232.5449,39.3227 C232.5449,33.8827 235.7399,30.7217 239.7849,30.7217 C241.4509,30.7217 243.1169,31.2987 244.4089,32.8627 L244.4089,31.1297 L250.5279,31.1297 L250.5279,47.5497 L244.4089,47.5497 L244.4089,45.8157 Z M244.4089,37.2487 C243.8319,36.5347 242.6759,36.1607 241.8589,36.1607 C240.1929,36.1607 238.8009,37.2827 238.8009,39.3227 C238.8009,41.3617 240.1929,42.5517 241.8589,42.5517 C242.6759,42.5517 243.8319,42.1447 244.4089,41.4307 L244.4089,37.2487 Z" id="Fill-24" fill="#FFFFFE" mask="url(#mask-2)"></path>
            <path d="M253.9303,42.7904 L253.9303,24.8734 L260.0493,24.8734 L260.0493,41.0214 C260.0493,41.8734 260.5933,42.5524 261.4083,42.5524 C261.9513,42.5524 262.4963,42.3824 262.6333,42.2464 L263.7213,46.8694 C263.0743,47.4474 261.6473,47.9584 259.5733,47.9584 C255.9363,47.9584 253.9303,46.2244 253.9303,42.7904" id="Fill-25" fill="#FFFFFE" mask="url(#mask-2)"></path>
            <path d="M46.1608,36.0931 C46.1608,42.4031 41.0458,47.5191 34.7338,47.5191 C28.4248,47.5191 23.3078,42.4031 23.3078,36.0931 C23.3078,29.7831 28.4248,24.6671 34.7338,24.6671 C41.0458,24.6671 46.1608,29.7831 46.1608,36.0931" id="Fill-26" fill="#DC3C3B" mask="url(#mask-2)"></path>
        </g>
    </g>
</svg>